<?xml version="1.0" encoding="utf-8"?>
<!-- Generator: Adobe Illustrator 21.0.2, SVG Export Plug-In . SVG Version: 6.00 Build 0)  -->
<svg version="1.1" id="Layer_1" xmlns="http://www.w3.org/2000/svg" xmlns:xlink="http://www.w3.org/1999/xlink" x="0px" y="0px"
	 viewBox="0 0 1920 517.4" style="enable-background:new 0 0 1920 517.4;" xml:space="preserve">
<style type="text/css">
	.st0{fill:#FFFFFF;}
</style>
<g>
	<g>
		<path class="st0" d="M823.8,172.8c0-22.5-15.1-33.1-44.5-33.1c-29.8,0-45,10.5-45,33v6.9c0,16.1,11.4,22,18.8,24.8l79.9,28.5
			c31.2,11,54.1,32.2,54.1,66.2v35.4c0,38.6-27.2,74.8-109.3,74.7c-81.7-0.1-109.7-36.4-109.7-75v-28.9c0-8.3,3.2-11.9,11-11.9h38.6
			c8.3,0,11,3.7,11,11.9V326c0,22.5,17.4,33.1,48.6,33.1c30.8,0,48.7-10.5,48.7-33v-14.7c0-18.8-18.3-26.2-39-34l-71.1-26.7
			c-22-8.3-41.7-31.7-41.7-59.3v-27.1c0-38.6,24-74.8,104.3-74.7c80.3,0.1,106,36.4,106,74.9v18.8c0,7.8-3.2,11.5-11.5,11.5h-38.6
			c-7.8,0-10.6-3.7-10.5-11.5L823.8,172.8z"/>
		<path class="st0" d="M1121.2,91.5c8,0,11.7,2.8,11.7,11.2v29.5c0,8.4-3.7,11.7-11.7,11.7l-66.4-0.1l-0.3,253.4
			c0,8.4-2.8,12.2-11.2,12.1h-40.7c-8.4,0-11.7-3.8-11.7-12.2l0.3-253.4l-66.4-0.1c-8.4,0-11.7-3.3-11.7-11.7v-29.5
			c0-8.4,3.3-11.2,11.7-11.2L1121.2,91.5z"/>
		<path class="st0" d="M1180.7,409.6c-7.5,0-9.8-4.2-9.8-12.2l0.3-293.6c0-8.4,2.8-12.2,11.2-12.1l101.9,0.1
			c84.6,0.1,114.1,37.1,114,76.3l-0.2,165.5c0,39.3-29.5,76.2-114.2,76.1L1180.7,409.6z M1234.3,144l-0.2,213.2l50,0.1
			c31.8,0,51-11.6,51-35l0.1-143.1c0-23.4-19.1-35.1-50.9-35.1L1234.3,144z"/>
		<path class="st0" d="M1628.3,293.1c0,4.2-1.9,6.5-6.6,6.5l-132.3-0.1l-0.1,51.9c0,21.5,11.2,36,54.2,36.1
			c43,0,54.3-14.4,54.3-35.9v-8c0-4.7,1.9-6.5,6.5-6.5h16.8c4.7,0,7,1.9,7,6.6v9.8c0,36-21.1,60.3-85.6,60.2
			c-64.1-0.1-85.1-24.4-85-60.4l0.1-117.8c0-36,21.6-60.3,86.1-60.2c64.1,0.1,84.6,24.4,84.6,60.4V293.1z M1489.5,274.8l108.5,0.1
			v-37.4c0-21-13.1-36-54.2-36.1c-42.1,0-54.3,14.9-54.3,35.9V274.8z"/>
		<path class="st0" d="M1745.1,410.1c-4.2,0-5.6-1.9-7-6.6L1664.4,186c-1.4-4.2,1.4-7,6.1-7h20.1c4.7,0,6.5,2.8,7.9,7l52.2,154.8
			c2.8,9.4,6,25.7,6.5,29c0.5-2.3,2.8-17.3,7-28.5l53.5-155.2c1.4-4.2,3.3-7,8-7h17.8c5.1,0,7.5,2.8,6.1,7l-75.5,217.5
			c-1.4,4.7-2.8,6.5-7.5,6.5H1745.1z"/>
	</g>
	<g>
		<g>
			<g>
				<g>
					<path class="st0" d="M710.5,499.2c-0.2,0.6-0.4,0.9-1,0.9h-2.7c-0.6,0-0.8-0.3-1-0.9l-7.8-29.3c-0.4-1.4-0.7-3.3-0.8-3.7
						l-1,3.8l-8.3,29.2c-0.2,0.6-0.4,0.9-1,0.9h-2.6c-0.6,0-0.9-0.3-1-0.9l-10-37.6c-0.2-0.6,0.2-1,0.8-1h2.3c0.6,0,0.9,0.4,1,1
						l8,29.8c0.5,1.8,0.7,3.2,0.7,3.2l0.8-3.2l8.2-29.7c0.2-0.6,0.5-1,1.1-1h2.6c0.6,0,1,0.4,1.1,1l7.7,29.8c0.3,1.4,0.6,2.9,0.7,3
						c0-0.2,0.5-1.9,0.8-3l8.1-29.7c0.2-0.6,0.5-1,1-1h2c0.6,0,1,0.4,0.8,1L710.5,499.2z"/>
					<path class="st0" d="M756,479.9c0,0.6-0.3,0.9-0.9,0.9h-23.4v9.9c0,3.9,2.2,6.6,10.2,6.6s10.2-2.7,10.2-6.6V489
						c0-0.6,0.2-1,0.9-1h2.1c0.6,0,1,0.3,1,1v1.9c0,5.8-3.4,9.8-14.2,9.8s-14.2-4.1-14.1-9.8v-21c0-5.8,3.4-9.9,14.2-9.9
						c10.7,0,14.1,4.1,14.1,9.9L756,479.9z M731.8,477.6h20.3v-7.4c0-3.8-2.3-6.6-10.1-6.6c-7.9,0-10.2,2.8-10.2,6.6V477.6z"/>
					<path class="st0" d="M768.8,500.2c-0.7,0-1-0.3-1-1l0.1-54c0-0.6,0.2-1,1-1h2.2c0.6,0,1,0.3,1,1V465c2.3-1.8,6.9-4.9,13.8-4.9
						c7.6,0,11,4,10.9,9.8v21c0,5.8-3.4,9.8-11,9.8c-6.9,0-11.6-3-13.9-4.9l-0.1,3.3c0,0.6-0.3,1-1,1L768.8,500.2z M792.6,470.5
						c0-3.7-2.2-6.6-7.8-6.6c-6.6,0-11,3.3-12.8,4.8v23.6c1.8,1.4,6.2,4.7,12.8,4.7c5.6,0,7.8-2.9,7.8-6.6V470.5z"/>
					<path class="st0" d="M827.2,470c0-5.8,3.3-9.8,13.9-9.8c10.7,0,13.9,4.1,13.9,9.9v29.3c0,0.6-0.2,1-0.9,1h-2c-0.7,0-1-0.3-1-1
						l-0.2-3.2c-2.3,1.8-7,4.8-13.6,4.8c-7.4,0-11-4.1-10.9-9.3v-4.1c0-5.2,3.4-9.3,10-9.3h14.5v-7.9c0-3.8-2-6.7-9.9-6.7
						c-7.8,0-9.9,2.7-9.9,6.6v1.2c0,0.7-0.3,1-1,1H828c-0.6,0-0.9-0.2-0.9-1L827.2,470z M850.9,492.7v-11h-13.8
						c-4.6,0-6.6,2.6-6.6,6.4v3.1c0,3.8,2.4,6.2,7.8,6.2C844.6,497.4,849.1,494.1,850.9,492.7z"/>
					<path class="st0" d="M872.1,461.8l0.1,3.4c2.3-1.9,7-5,13.9-4.9c7.5,0,11,4,10.9,9.6v29.5c0,0.6-0.2,1-0.9,1h-2.3
						c-0.6,0-0.9-0.3-0.9-1v-28.7c0-3.9-2.3-6.6-7.8-6.6c-6.5,0-11,3.3-12.8,4.8v30.6c0,0.6-0.3,1-1,1h-2.2c-0.7,0-1-0.3-1-1V462
						c0-0.6,0.2-1,1-1h2C871.8,460.8,872.1,461.2,872.1,461.8z"/>
					<path class="st0" d="M934.1,496.1c-2.3,1.8-7,4.9-13.9,4.9c-7.6,0-11-4-10.9-9.8v-21c0-5.8,3.4-9.8,11-9.8
						c6.8,0,11.4,3.1,13.8,4.9v-19.8c0-0.6,0.2-1,0.9-1h2.3c0.7,0,1,0.3,1,1l-0.1,54c0,0.6-0.2,1-1,1h-2c-0.7,0-1-0.3-1-1
						L934.1,496.1z M913.3,490.6c0,3.7,2.2,6.6,7.8,6.6c6.4,0,11-3.3,12.8-4.7v-23.6c-1.8-1.5-6.4-4.8-12.8-4.8
						c-5.6,0-7.8,2.9-7.8,6.6V490.6z"/>
					<path class="st0" d="M973.3,461c0.6,0,1,0.3,1,1l0.1,3.3c2.2-1.8,6.6-4.9,13.4-4.9c5.5,0,8.8,2.2,10.2,5.5
						c1.9-1.8,6.5-5.5,14.1-5.5c7.5,0,11,4,11,9.6v29.5c0,0.6-0.3,1-1,1h-2.2c-0.7,0-1-0.3-1-1v-28.7c0-3.9-2.2-6.6-7.8-6.6
						c-6.7,0-10.9,3.5-12.5,4.9c0.2,0.6,0.2,1.2,0.2,1.8v28.7c0,0.6-0.2,1-0.9,1h-2.3c-0.6,0-0.9-0.3-0.9-1v-28.7
						c0-3.9-2.3-6.6-7.8-6.6c-6.5,0-10.6,3.3-12.3,4.8v30.6c0,0.6-0.3,1-1,1h-2.2c-0.7,0-1-0.3-1-1v-37.5c0-0.6,0.2-1,1-1L973.3,461
						z"/>
					<path class="st0" d="M1035.2,470.3c0-5.8,3.8-9.9,14.5-9.9s14.5,4.1,14.5,9.9v21c0,5.8-3.8,9.8-14.5,9.8s-14.5-4.1-14.5-9.8
						V470.3z M1060,470.6c0-3.9-2.5-6.6-10.3-6.7c-7.8,0-10.3,2.7-10.3,6.6v20.4c0,4,2.5,6.6,10.3,6.6s10.3-2.6,10.3-6.6V470.6z"/>
					<path class="st0" d="M1077.7,500.5c-0.7,0-1-0.3-1-1l0.1-54c0-0.6,0.2-1,1-1h2.2c0.6,0,1,0.3,1,1v19.8
						c2.3-1.8,6.9-4.9,13.8-4.9c7.6,0,11,4,10.9,9.8v21c0,5.8-3.4,9.8-11,9.8c-6.9,0-11.6-3.1-13.9-4.9l-0.1,3.3c0,0.6-0.3,1-1,1
						L1077.7,500.5z M1101.6,470.8c0-3.7-2.2-6.6-7.8-6.6c-6.6,0-11,3.3-12.8,4.8v23.6c1.8,1.4,6.2,4.7,12.8,4.7
						c5.6,0,7.8-2.9,7.8-6.6V470.8z"/>
					<path class="st0" d="M1122.6,453.2c0,0.6-0.3,1-1,1h-2.2c-0.7,0-1-0.3-1-1v-7.6c0-0.6,0.2-1,1-1h2.2c0.6,0,1,0.3,1,1V453.2z
						 M1122.5,499.6c0,0.6-0.3,1-1,1h-2.2c-0.7,0-1-0.3-1-1v-37.4c0-0.7,0.2-1,1-1h2.2c0.6,0,1,0.3,1,1V499.6z"/>
					<path class="st0" d="M1140.2,499.6c0,0.6-0.3,1-1,1h-2.2c-0.7,0-1-0.3-1-1l0.1-54c0-0.6,0.2-1,1-1h2.2c0.6,0,1,0.3,1,1
						L1140.2,499.6z"/>
					<path class="st0" d="M1181.1,480.4c0,0.6-0.3,0.9-0.9,0.9h-23.4v9.9c0,3.9,2.2,6.6,10.2,6.6s10.2-2.7,10.2-6.6v-1.7
						c0-0.6,0.2-1,0.9-1h2.1c0.6,0,1,0.3,1,1v1.9c0,5.8-3.4,9.8-14.2,9.8s-14.2-4.1-14.1-9.8v-21c0-5.8,3.4-9.9,14.2-9.9
						c10.7,0,14.1,4.1,14.1,9.9L1181.1,480.4z M1156.9,478h20.3v-7.4c0-3.8-2.3-6.6-10.1-6.6c-7.9,0-10.2,2.8-10.2,6.6V478z"/>
					<path class="st0" d="M1235.4,496.4c-2.3,1.8-7,4.9-13.9,4.9c-7.6,0-11-4-10.9-9.8v-21c0-5.8,3.4-9.8,11-9.8
						c6.8,0,11.4,3.1,13.8,4.9v-19.8c0-0.6,0.2-1,0.9-1h2.3c0.7,0,1,0.3,1,1l-0.1,54c0,0.6-0.2,1-1,1h-2c-0.7,0-1-0.3-1-1
						L1235.4,496.4z M1214.7,490.9c0,3.7,2.2,6.6,7.8,6.6c6.4,0,11-3.3,12.8-4.7v-23.6c-1.8-1.5-6.4-4.8-12.8-4.8
						c-5.6,0-7.8,2.9-7.8,6.6V490.9z"/>
					<path class="st0" d="M1280.4,480.5c0,0.6-0.3,0.9-0.9,0.9h-23.4v9.9c0,3.9,2.2,6.6,10.2,6.6s10.2-2.7,10.2-6.6v-1.7
						c0-0.6,0.2-1,0.9-1h2.1c0.6,0,1,0.3,1,1v1.9c0,5.8-3.4,9.8-14.2,9.8s-14.1-4.1-14.1-9.8v-21c0-5.8,3.4-9.9,14.2-9.9
						c10.7,0,14.1,4.1,14.1,9.9L1280.4,480.5z M1256.2,478.1h20.3v-7.4c0-3.8-2.3-6.6-10.1-6.6c-7.9,0-10.2,2.8-10.2,6.6V478.1z"/>
					<path class="st0" d="M1300.9,500.7c-0.6,0-0.8-0.2-1-0.9l-12.7-37.6c-0.2-0.6,0.1-1,0.7-1h2.5c0.6,0,1,0.4,1.1,1l9.8,28.9
						c0.3,1,0.9,3.7,1,4.2c0.1-0.4,0.6-3,1.1-4.2l9.9-28.9c0.2-0.6,0.5-1,1.1-1h2.2c0.6,0,0.9,0.4,0.7,1l-13,37.6
						c-0.2,0.6-0.4,0.9-1,0.9H1300.9z"/>
					<path class="st0" d="M1352.9,480.5c0,0.6-0.3,0.9-0.9,0.9h-23.4v9.9c0,3.9,2.2,6.6,10.2,6.6s10.2-2.7,10.2-6.6v-1.7
						c0-0.6,0.2-1,0.9-1h2.1c0.6,0,1,0.3,1,1v1.9c0,5.8-3.4,9.8-14.2,9.8s-14.2-4.1-14.1-9.8v-21c0-5.8,3.4-9.9,14.2-9.9
						c10.7,0,14.1,4.1,14.1,9.9L1352.9,480.5z M1328.7,478.2h20.3v-7.4c0-3.8-2.3-6.6-10.1-6.6c-7.9,0-10.2,2.8-10.2,6.6V478.2z"/>
					<path class="st0" d="M1368.9,499.8c0,0.6-0.3,1-1,1h-2.2c-0.7,0-1-0.3-1-1l0.1-54c0-0.6,0.2-1,1-1h2.2c0.6,0,1,0.3,1,1
						L1368.9,499.8z"/>
					<path class="st0" d="M1381.5,470.6c0-5.8,3.8-9.9,14.5-9.9s14.5,4.1,14.5,9.9v21c0,5.8-3.8,9.8-14.5,9.8s-14.5-4.1-14.5-9.8
						V470.6z M1406.3,470.9c0-3.9-2.5-6.6-10.3-6.7c-7.8,0-10.3,2.7-10.3,6.6v20.4c0,4,2.5,6.6,10.3,6.6s10.3-2.6,10.3-6.6V470.9z"
						/>
					<path class="st0" d="M1426.1,461.4c0.6,0,1,0.3,1,1l0.1,3.3c2.3-1.8,7-5,13.9-4.9c7.6,0,11,4,10.9,9.8v21c0,5.8-3.4,9.8-11,9.8
						c-6.8,0-11.4-3-13.8-4.8v19.8c0,0.6-0.3,1-1,1h-2.2c-0.7,0-1-0.3-1-1l0.1-54.1c0-0.7,0.2-1,1-1L1426.1,461.4z M1447.9,471.2
						c0-3.7-2.2-6.6-7.8-6.6c-6.6,0-11,3.3-12.8,4.8V493c1.8,1.4,6.2,4.7,12.8,4.7c5.6,0,7.8-2.9,7.8-6.6V471.2z"/>
					<path class="st0" d="M1467.7,461.5c0.6,0,1,0.3,1,1l0.1,3.3c2.2-1.8,6.6-4.9,13.4-4.9c5.5,0,8.8,2.2,10.2,5.5
						c1.9-1.8,6.5-5.5,14.1-5.5c7.5,0,11,4,11,9.6V500c0,0.6-0.3,1-1,1h-2.2c-0.7,0-1-0.3-1-1v-28.7c0-3.9-2.2-6.6-7.8-6.6
						c-6.7,0-10.9,3.5-12.5,4.9c0.2,0.6,0.2,1.2,0.2,1.8v28.7c0,0.6-0.2,1-0.9,1h-2.3c-0.6,0-0.9-0.3-0.9-1v-28.7
						c0-3.9-2.3-6.6-7.8-6.6c-6.5,0-10.6,3.3-12.3,4.8v30.6c0,0.6-0.3,1-1,1h-2.2c-0.7,0-1-0.3-1-1v-37.5c0-0.6,0.2-1,1-1
						L1467.7,461.5z"/>
					<path class="st0" d="M1557.9,480.7c0,0.6-0.3,0.9-0.9,0.9h-23.4v9.9c0,3.9,2.2,6.6,10.2,6.6s10.2-2.7,10.2-6.6v-1.7
						c0-0.6,0.2-1,0.9-1h2.1c0.6,0,1,0.3,1,1v1.9c0,5.8-3.4,9.8-14.2,9.8s-14.1-4.1-14.1-9.8v-21c0-5.8,3.4-9.9,14.2-9.9
						c10.7,0,14.1,4.1,14.1,9.9L1557.9,480.7z M1533.6,478.4h20.3V471c0-3.8-2.3-6.6-10.1-6.6c-7.9,0-10.2,2.8-10.2,6.6V478.4z"/>
					<path class="st0" d="M1573.6,462.5l0.1,3.4c2.3-1.9,7-5,13.9-4.9c7.5,0,11,4,10.9,9.6v29.5c0,0.6-0.2,1-0.9,1h-2.3
						c-0.6,0-0.9-0.3-0.9-1v-28.7c0-3.9-2.3-6.6-7.8-6.6c-6.5,0-11,3.3-12.8,4.8v30.6c0,0.6-0.3,1-1,1h-2.2c-0.7,0-1-0.3-1-1v-37.5
						c0-0.6,0.2-1,1-1h2C1573.3,461.6,1573.6,461.9,1573.6,462.5z"/>
					<path class="st0" d="M1626.8,461.8c0.6,0,1,0.2,1,0.9v1.6c0,0.7-0.3,1-1,1h-9.4v25.6c0,3.9,2.2,6.6,10.1,6.6h1.3
						c0.6,0,1,0.3,1,1v1.7c0,0.7-0.3,1-1,1h-1.8c-10.8,0-13.8-3.9-13.7-9.9v-26h-5c-0.7,0-1-0.2-1-1V463c0-0.7,0.2-0.9,1-1l4.2-0.2
						h0.8v-8.6c0-0.7,0.3-1,1-1h2.3c0.6,0,0.9,0.3,0.9,1v8.6L1626.8,461.8z"/>
				</g>
			</g>
		</g>
	</g>
	<g>
		<path class="st0" d="M548.4,203.1L407,61.5v0.1c0,0.6,0.1,1.2,0.1,1.8c0.1,2.3,0.1,4.6,0,6.9v0.5c-0.1,2.3-0.3,4.4-0.6,6.4
			l-0.2,1.7c-0.3,2.3-0.7,4.5-1.3,6.8l-0.1,0.4c-0.5,2.2-1.1,4.3-1.8,6.3l-0.6,1.7c-0.8,2.5-1.7,4.6-2.5,6.5l-0.2,0.4
			c-0.9,2-1.9,4-3,6l-0.9,1.6c-1.4,2.4-2.6,4.3-3.8,6.1c-1.3,1.9-2.7,3.7-4.4,5.8l-1.2,1.4c-1.8,2.2-3.4,3.9-5,5.5l-47.4,47.3
			l12.7,12.7c16.4,16.4,25.4,38.2,25.4,61.4s-9.1,44.9-25.5,61.3l-75.4,75.3c-1.5,1.5-2.9,3-4.2,4.6c-0.2,0.2-0.3,0.4-0.5,0.6
			l-0.6,0.8c-1,1.3-1.9,2.4-2.7,3.5c-0.2,0.2-0.3,0.5-0.4,0.7l-0.8,1.4c-0.7,1-1.3,2-1.9,3.1c-0.2,0.3-0.4,0.7-0.5,1l-0.9,1.7
			c-0.4,0.9-0.9,1.7-1.3,2.6c-0.2,0.4-0.3,0.8-0.5,1.2l-0.7,1.9c-0.3,0.8-0.6,1.6-0.9,2.4c-0.2,0.5-0.3,1-0.4,1.5l-0.6,2.1
			c-0.2,0.7-0.4,1.4-0.6,2.1c-0.1,0.5-0.2,1.1-0.3,1.6l-0.4,2.1c-0.1,0.7-0.3,1.4-0.4,2.1c-0.1,0.6-0.1,1.1-0.2,1.7l-0.2,2.1
			c-0.1,0.7-0.1,1.3-0.2,2c0,0.6,0,1.3,0,1.9v1.1v1.1c0,0.6,0,1.2,0,1.7c0,0.7,0.1,1.3,0.2,2l0.2,2.1c0,0.6,0.1,1.2,0.2,1.7
			c0.1,0.7,0.2,1.4,0.4,2.1l0.4,2c0.1,0.6,0.2,1.1,0.3,1.7c0.1,0.6,0.3,1.3,0.5,1.9l0.6,2.1c0.1,0.6,0.3,1.1,0.5,1.7
			c0.2,0.7,0.5,1.3,0.7,1.9l0.8,2c0.2,0.5,0.4,1.1,0.6,1.6c0.3,0.6,0.6,1.3,0.9,1.9l1,2c0.2,0.5,0.5,1.1,0.8,1.6
			c0.3,0.6,0.7,1.2,1.1,1.7l1.2,1.9c0.3,0.5,0.6,1,1,1.5c0.4,0.6,0.8,1.1,1.3,1.7l1.3,1.8c0.4,0.5,0.7,1,1.1,1.5l5.8,5.8
			c12.2,12.2,28.4,19,45.7,19.1c17.3,0,33.5-6.8,45.8-19l183.9-183.6C573.7,269.7,573.7,228.5,548.4,203.1z"/>
		<path class="st0" d="M303.4,322.8l-12.7-12.7c-16.3-16.4-25.3-38.2-25.3-61.3c0-23.2,9.1-45,25.4-61.3l75.4-75.3
			c1.5-1.5,2.9-3,4.2-4.6c0.4-0.5,0.7-0.9,1.1-1.4l1.4-1.9c0.4-0.5,0.8-1.1,1.2-1.6c0.4-0.6,0.7-1.2,1.1-1.8l1.2-1.9
			c0.3-0.5,0.6-1,0.9-1.5c0.3-0.6,0.6-1.2,0.9-1.8l1-2c0.3-0.5,0.5-1.1,0.8-1.6c0.3-0.6,0.5-1.2,0.7-1.8l0.8-2
			c0.2-0.6,0.5-1.1,0.6-1.7c0.2-0.5,0.3-1.1,0.5-1.6l0.6-2.3c0.2-0.6,0.4-1.2,0.5-1.8c0.1-0.6,0.2-1.1,0.3-1.7l0.4-2
			c0.1-0.7,0.3-1.4,0.4-2c0.1-0.5,0.1-1.1,0.2-1.6l0.2-2.1c0.1-0.7,0.2-1.4,0.2-2.1c0-0.5,0-1,0-1.5v-1v-1c0-0.8,0-1.6,0-2.4
			c0-0.5-0.1-1-0.1-1.5l-0.2-1.9c-0.1-0.8-0.1-1.7-0.2-2.5c-0.1-0.5-0.2-0.9-0.2-1.4l-0.4-2c-0.1-0.8-0.3-1.6-0.4-2.4
			c-0.1-0.5-0.2-0.9-0.4-1.4l-0.5-1.9c-0.2-0.8-0.4-1.6-0.7-2.4c-0.2-0.5-0.3-0.9-0.5-1.4l-0.7-1.8c-0.3-0.8-0.6-1.6-0.9-2.3
			c-0.2-0.5-0.4-0.9-0.7-1.4l-0.9-1.9c-0.4-0.7-0.7-1.5-1.1-2.2c-0.3-0.5-0.6-0.9-0.9-1.4l-1.1-1.8c-0.4-0.7-0.8-1.4-1.3-2
			c-0.3-0.5-0.7-0.9-1.1-1.4l-1.3-1.8c-0.4-0.6-0.9-1.2-1.3-1.8l-5.8-5.8C352.5,6.9,336.2,0.1,318.9,0c-17.3,0.1-33.5,6.8-45.7,19
			l-184,183.6c-12.3,12.3-19.1,28.6-19.1,46s6.7,33.7,19,46l141.4,141.6v-0.1l-0.1-1.8c-0.1-2.5-0.1-4.8,0-6.9v-0.5
			c0.1-2.3,0.3-4.4,0.6-6.5l0.2-1.7c0.4-2.6,0.8-4.8,1.3-6.8l0.1-0.4c0.5-2.2,1.1-4.3,1.8-6.4l0.6-1.7c0.9-2.5,1.7-4.6,2.5-6.5
			l0.2-0.4c0.9-2,1.9-4,3-6l0.9-1.6c1.3-2.3,2.5-4.3,3.8-6.1c1.3-1.9,2.7-3.8,4.4-5.8l1.2-1.4c1.8-2.2,3.4-3.9,5-5.5L303.4,322.8z"
			/>
	</g>
</g>
</svg>
